<?xml version="1.0" encoding="UTF-8"?>
<svg width="25px" height="25px" viewBox="0 0 25 25" version="1.1" xmlns="http://www.w3.org/2000/svg" xmlns:xlink="http://www.w3.org/1999/xlink">
    <title>完成</title>
    <g id="无轨站4月需求" stroke="none" stroke-width="1" fill="none" fill-rule="evenodd">
        <g id="iPhone-8备份-142" transform="translate(-57.000000, -392.000000)" fill="#F36000" fill-rule="nonzero">
            <g id="编组-22" transform="translate(0.000000, 233.000000)">
                <g id="编组-17备份" transform="translate(18.000000, 76.000000)">
                    <g id="完成" transform="translate(39.000000, 83.000000)">
                        <path d="M12.5,0 C5.5729248,0 0,5.5729248 0,12.5 C0,19.4270752 5.5729248,25 12.5,25 C19.4270752,25 25,19.4270752 25,12.5 C25,5.5729248 19.4270752,0 12.5,0 Z M18.7537782,10.7425061 L11.7923317,17.7661983 C11.6329094,17.927046 11.4734872,17.9806619 11.260925,17.9806619 C10.9952204,18.0342777 10.7295183,17.9806619 10.5700961,17.7661983 L6.21256292,13.3160696 C6.05314067,13.1552219 6,12.9943742 6,12.7799114 C6,12.5654479 6.10628158,12.3509833 6.21256292,12.2437532 L6.58454733,11.8684427 C6.90339183,11.5467472 7.38165858,11.5467472 7.70050308,11.8684427 L11.2077926,15.4070925 L17.3189705,9.24127158 C17.637815,8.91957614 18.1160817,8.91957614 18.4349262,9.24127158 L18.8069106,9.6165821 C19.0726152,9.99189261 19.0726152,10.4744358 18.75377,10.7425161 L18.7537782,10.7425061 Z" id="形状"></path>
                    </g>
                </g>
            </g>
        </g>
    </g>
</svg>