<?xml version="1.0" encoding="UTF-8"?>
<svg width="16px" height="16px" viewBox="0 0 16 16" version="1.1" xmlns="http://www.w3.org/2000/svg" xmlns:xlink="http://www.w3.org/1999/xlink">
    <title>形状</title>
    <g id="无轨站4月需求" stroke="none" stroke-width="1" fill="none" fill-rule="evenodd">
        <g id="iPhone-8备份-112" transform="translate(-264.000000, -84.000000)" fill="#B8B8B8" fill-rule="nonzero">
            <path d="M272,84 C276.417857,84 280,87.5821429 280,92 C280,96.4178571 276.417857,100 272,100 C267.582143,100 264,96.4178571 264,92 C264,87.5821429 267.582143,84 272,84 Z M275.430357,94.3928571 L273.0375,92 L275.430357,89.6071429 C275.716071,89.3214286 275.716071,88.8571429 275.430357,88.5696429 C275.144643,88.2839286 274.680357,88.2839286 274.392857,88.5696429 L272,90.9625 L269.607143,88.5696429 C269.321429,88.2839286 268.857143,88.2839286 268.569643,88.5696429 C268.283929,88.8553571 268.283929,89.3196429 268.569643,89.6071429 L270.9625,92 L268.569643,94.3928571 C268.283929,94.6785714 268.283929,95.1428571 268.569643,95.4303571 C268.855357,95.7160714 269.319643,95.7160714 269.607143,95.4303571 L272,93.0375 L274.392857,95.4303571 C274.678571,95.7160714 275.142857,95.7160714 275.430357,95.4303571 C275.717857,95.1446429 275.717857,94.6803571 275.430357,94.3928571 Z" id="形状"></path>
        </g>
    </g>
</svg>